<svg width="1056" height="1023" viewBox="0 0 1056 1023" fill="none" xmlns="http://www.w3.org/2000/svg">
<g clip-path="url(#clip0_1_41)">
<path d="M91.6193 294.409C75.8523 294.409 62.2514 290.929 50.8168 283.969C39.4531 276.938 30.6818 267.136 24.5028 254.565C18.3949 241.923 15.3409 227.222 15.3409 210.46C15.3409 193.699 18.3949 178.926 24.5028 166.142C30.6818 153.287 39.2756 143.273 50.2841 136.099C61.3636 128.855 74.2898 125.233 89.0625 125.233C97.5852 125.233 106.001 126.653 114.311 129.494C122.621 132.335 130.185 136.952 137.003 143.344C143.821 149.665 149.254 158.045 153.303 168.486C157.351 178.926 159.375 191.781 159.375 207.051V217.705H33.2386V195.972H133.807C133.807 186.739 131.96 178.5 128.267 171.256C124.645 164.011 119.46 158.294 112.713 154.104C106.037 149.913 98.1534 147.818 89.0625 147.818C79.0483 147.818 70.3835 150.304 63.0682 155.276C55.8239 160.176 50.2486 166.568 46.3423 174.452C42.4361 182.335 40.483 190.787 40.483 199.807V214.295C40.483 226.653 42.6136 237.129 46.875 245.723C51.2074 254.246 57.2088 260.744 64.8793 265.219C72.5497 269.622 81.4631 271.824 91.6193 271.824C98.2244 271.824 104.19 270.901 109.517 269.054C114.915 267.136 119.567 264.295 123.473 260.531C127.379 256.696 130.398 251.937 132.528 246.256L156.818 253.074C154.261 261.312 149.964 268.557 143.928 274.807C137.891 280.986 130.433 285.815 121.555 289.295C112.678 292.705 102.699 294.409 91.6193 294.409Z" fill="black"/>
<path d="M434.619 747.409C418.852 747.409 405.251 743.929 393.817 736.969C382.453 729.938 373.682 720.136 367.503 707.565C361.395 694.923 358.341 680.222 358.341 663.46C358.341 646.699 361.395 631.926 367.503 619.142C373.682 606.287 382.276 596.273 393.284 589.099C404.364 581.855 417.29 578.233 432.062 578.233C440.585 578.233 449.001 579.653 457.311 582.494C465.621 585.335 473.185 589.952 480.003 596.344C486.821 602.665 492.254 611.045 496.303 621.486C500.351 631.926 502.375 644.781 502.375 660.051V670.705H376.239V648.972H476.807C476.807 639.739 474.96 631.5 471.267 624.256C467.645 617.011 462.46 611.294 455.713 607.104C449.037 602.913 441.153 600.818 432.062 600.818C422.048 600.818 413.384 603.304 406.068 608.276C398.824 613.176 393.249 619.568 389.342 627.452C385.436 635.335 383.483 643.787 383.483 652.807V667.295C383.483 679.653 385.614 690.129 389.875 698.723C394.207 707.246 400.209 713.744 407.879 718.219C415.55 722.622 424.463 724.824 434.619 724.824C441.224 724.824 447.19 723.901 452.517 722.054C457.915 720.136 462.567 717.295 466.473 713.531C470.379 709.696 473.398 704.937 475.528 699.256L499.818 706.074C497.261 714.312 492.964 721.557 486.928 727.807C480.891 733.986 473.433 738.815 464.555 742.295C455.678 745.705 445.699 747.409 434.619 747.409Z" fill="black"/>
<path d="M972.619 954.409C956.852 954.409 943.251 950.929 931.817 943.969C920.453 936.938 911.682 927.136 905.503 914.565C899.395 901.923 896.341 887.222 896.341 870.46C896.341 853.699 899.395 838.926 905.503 826.142C911.682 813.287 920.276 803.273 931.284 796.099C942.364 788.855 955.29 785.233 970.062 785.233C978.585 785.233 987.001 786.653 995.311 789.494C1003.62 792.335 1011.18 796.952 1018 803.344C1024.82 809.665 1030.25 818.045 1034.3 828.486C1038.35 838.926 1040.38 851.781 1040.38 867.051V877.705H914.239V855.972H1014.81C1014.81 846.739 1012.96 838.5 1009.27 831.256C1005.64 824.011 1000.46 818.294 993.713 814.104C987.037 809.913 979.153 807.818 970.062 807.818C960.048 807.818 951.384 810.304 944.068 815.276C936.824 820.176 931.249 826.568 927.342 834.452C923.436 842.335 921.483 850.787 921.483 859.807V874.295C921.483 886.653 923.614 897.129 927.875 905.723C932.207 914.246 938.209 920.744 945.879 925.219C953.55 929.622 962.463 931.824 972.619 931.824C979.224 931.824 985.19 930.901 990.517 929.054C995.915 927.136 1000.57 924.295 1004.47 920.531C1008.38 916.696 1011.4 911.937 1013.53 906.256L1037.82 913.074C1035.26 921.312 1030.96 928.557 1024.93 934.807C1018.89 940.986 1011.43 945.815 1002.56 949.295C993.678 952.705 983.699 954.409 972.619 954.409Z" fill="black"/>
<path d="M266.619 518.409C250.852 518.409 237.251 514.929 225.817 507.969C214.453 500.938 205.682 491.136 199.503 478.565C193.395 465.923 190.341 451.222 190.341 434.46C190.341 417.699 193.395 402.926 199.503 390.142C205.682 377.287 214.276 367.273 225.284 360.099C236.364 352.855 249.29 349.233 264.062 349.233C272.585 349.233 281.001 350.653 289.311 353.494C297.621 356.335 305.185 360.952 312.003 367.344C318.821 373.665 324.254 382.045 328.303 392.486C332.351 402.926 334.375 415.781 334.375 431.051V441.705H208.239V419.972H308.807C308.807 410.739 306.96 402.5 303.267 395.256C299.645 388.011 294.46 382.294 287.713 378.104C281.037 373.913 273.153 371.818 264.062 371.818C254.048 371.818 245.384 374.304 238.068 379.276C230.824 384.176 225.249 390.568 221.342 398.452C217.436 406.335 215.483 414.787 215.483 423.807V438.295C215.483 450.653 217.614 461.129 221.875 469.723C226.207 478.246 232.209 484.744 239.879 489.219C247.55 493.622 256.463 495.824 266.619 495.824C273.224 495.824 279.19 494.901 284.517 493.054C289.915 491.136 294.567 488.295 298.473 484.531C302.379 480.696 305.398 475.937 307.528 470.256L331.818 477.074C329.261 485.312 324.964 492.557 318.928 498.807C312.891 504.986 305.433 509.815 296.555 513.295C287.678 516.705 277.699 518.409 266.619 518.409Z" fill="black"/>
<path d="M432.489 518.409C417.148 518.409 403.938 514.787 392.858 507.543C381.778 500.298 373.256 490.32 367.29 477.607C361.324 464.893 358.341 450.369 358.341 434.034C358.341 417.415 361.395 402.749 367.503 390.036C373.682 377.251 382.276 367.273 393.284 360.099C404.364 352.855 417.29 349.233 432.062 349.233C443.568 349.233 453.938 351.364 463.17 355.625C472.403 359.886 479.967 365.852 485.862 373.523C491.757 381.193 495.415 390.142 496.835 400.369H471.693C469.776 392.912 465.514 386.307 458.909 380.554C452.375 374.73 443.568 371.818 432.489 371.818C422.688 371.818 414.094 374.375 406.707 379.489C399.392 384.531 393.675 391.669 389.555 400.902C385.507 410.064 383.483 420.824 383.483 433.182C383.483 445.824 385.472 456.832 389.449 466.207C393.497 475.582 399.179 482.862 406.494 488.047C413.881 493.232 422.545 495.824 432.489 495.824C439.023 495.824 444.953 494.688 450.28 492.415C455.607 490.142 460.116 486.875 463.81 482.614C467.503 478.352 470.131 473.239 471.693 467.273H496.835C495.415 476.932 491.899 485.632 486.288 493.374C480.749 501.044 473.398 507.152 464.236 511.697C455.145 516.172 444.563 518.409 432.489 518.409Z" fill="black"/>
<path d="M264.489 294.409C249.148 294.409 235.938 290.787 224.858 283.543C213.778 276.298 205.256 266.32 199.29 253.607C193.324 240.893 190.341 226.369 190.341 210.034C190.341 193.415 193.395 178.749 199.503 166.036C205.682 153.251 214.276 143.273 225.284 136.099C236.364 128.855 249.29 125.233 264.062 125.233C275.568 125.233 285.938 127.364 295.17 131.625C304.403 135.886 311.967 141.852 317.862 149.523C323.757 157.193 327.415 166.142 328.835 176.369H303.693C301.776 168.912 297.514 162.307 290.909 156.554C284.375 150.73 275.568 147.818 264.489 147.818C254.688 147.818 246.094 150.375 238.707 155.489C231.392 160.531 225.675 167.669 221.555 176.902C217.507 186.064 215.483 196.824 215.483 209.182C215.483 221.824 217.472 232.832 221.449 242.207C225.497 251.582 231.179 258.862 238.494 264.047C245.881 269.232 254.545 271.824 264.489 271.824C271.023 271.824 276.953 270.688 282.28 268.415C287.607 266.142 292.116 262.875 295.81 258.614C299.503 254.352 302.131 249.239 303.693 243.273H328.835C327.415 252.932 323.899 261.632 318.288 269.374C312.749 277.044 305.398 283.152 296.236 287.697C287.145 292.172 276.563 294.409 264.489 294.409Z" fill="black"/>
<path d="M391.153 192.562V291H366.011V72.8182H391.153V152.932H393.284C397.119 144.48 402.872 137.768 410.543 132.797C418.284 127.754 428.582 125.233 441.438 125.233C452.588 125.233 462.354 127.47 470.734 131.945C479.115 136.348 485.614 143.131 490.23 152.293C494.918 161.384 497.261 172.96 497.261 187.023V291H472.119V188.727C472.119 175.73 468.746 165.68 461.999 158.578C455.322 151.405 446.054 147.818 434.193 147.818C425.955 147.818 418.568 149.558 412.034 153.038C405.571 156.518 400.457 161.597 396.693 168.273C393 174.949 391.153 183.045 391.153 192.562Z" fill="black"/>
<path d="M610.489 294.409C595.716 294.409 582.754 290.893 571.604 283.862C560.524 276.831 551.859 266.994 545.609 254.352C539.43 241.71 536.341 226.937 536.341 210.034C536.341 192.989 539.43 178.109 545.609 165.396C551.859 152.683 560.524 142.811 571.604 135.78C582.754 128.749 595.716 125.233 610.489 125.233C625.261 125.233 638.188 128.749 649.267 135.78C660.418 142.811 669.082 152.683 675.261 165.396C681.511 178.109 684.636 192.989 684.636 210.034C684.636 226.937 681.511 241.71 675.261 254.352C669.082 266.994 660.418 276.831 649.267 283.862C638.188 290.893 625.261 294.409 610.489 294.409ZM610.489 271.824C621.71 271.824 630.943 268.947 638.188 263.195C645.432 257.442 650.794 249.878 654.274 240.503C657.754 231.128 659.494 220.972 659.494 210.034C659.494 199.097 657.754 188.905 654.274 179.459C650.794 170.013 645.432 162.378 638.188 156.554C630.943 150.73 621.71 147.818 610.489 147.818C599.267 147.818 590.034 150.73 582.79 156.554C575.545 162.378 570.183 170.013 566.703 179.459C563.223 188.905 561.483 199.097 561.483 210.034C561.483 220.972 563.223 231.128 566.703 240.503C570.183 249.878 575.545 257.442 582.79 263.195C590.034 268.947 599.267 271.824 610.489 271.824Z" fill="black"/>
<path d="M798.489 518.409C783.716 518.409 770.754 514.893 759.604 507.862C748.524 500.831 739.859 490.994 733.609 478.352C727.43 465.71 724.341 450.937 724.341 434.034C724.341 416.989 727.43 402.109 733.609 389.396C739.859 376.683 748.524 366.811 759.604 359.78C770.754 352.749 783.716 349.233 798.489 349.233C813.261 349.233 826.188 352.749 837.267 359.78C848.418 366.811 857.082 376.683 863.261 389.396C869.511 402.109 872.636 416.989 872.636 434.034C872.636 450.937 869.511 465.71 863.261 478.352C857.082 490.994 848.418 500.831 837.267 507.862C826.188 514.893 813.261 518.409 798.489 518.409ZM798.489 495.824C809.71 495.824 818.943 492.947 826.188 487.195C833.432 481.442 838.794 473.878 842.274 464.503C845.754 455.128 847.494 444.972 847.494 434.034C847.494 423.097 845.754 412.905 842.274 403.459C838.794 394.013 833.432 386.378 826.188 380.554C818.943 374.73 809.71 371.818 798.489 371.818C787.267 371.818 778.034 374.73 770.79 380.554C763.545 386.378 758.183 394.013 754.703 403.459C751.223 412.905 749.483 423.097 749.483 434.034C749.483 444.972 751.223 455.128 754.703 464.503C758.183 473.878 763.545 481.442 770.79 487.195C778.034 492.947 787.267 495.824 798.489 495.824Z" fill="black"/>
<path d="M798.489 747.409C783.716 747.409 770.754 743.893 759.604 736.862C748.524 729.831 739.859 719.994 733.609 707.352C727.43 694.71 724.341 679.937 724.341 663.034C724.341 645.989 727.43 631.109 733.609 618.396C739.859 605.683 748.524 595.811 759.604 588.78C770.754 581.749 783.716 578.233 798.489 578.233C813.261 578.233 826.188 581.749 837.267 588.78C848.418 595.811 857.082 605.683 863.261 618.396C869.511 631.109 872.636 645.989 872.636 663.034C872.636 679.937 869.511 694.71 863.261 707.352C857.082 719.994 848.418 729.831 837.267 736.862C826.188 743.893 813.261 747.409 798.489 747.409ZM798.489 724.824C809.71 724.824 818.943 721.947 826.188 716.195C833.432 710.442 838.794 702.878 842.274 693.503C845.754 684.128 847.494 673.972 847.494 663.034C847.494 652.097 845.754 641.905 842.274 632.459C838.794 623.013 833.432 615.378 826.188 609.554C818.943 603.73 809.71 600.818 798.489 600.818C787.267 600.818 778.034 603.73 770.79 609.554C763.545 615.378 758.183 623.013 754.703 632.459C751.223 641.905 749.483 652.097 749.483 663.034C749.483 673.972 751.223 684.128 754.703 693.503C758.183 702.878 763.545 710.442 770.79 716.195C778.034 721.947 787.267 724.824 798.489 724.824Z" fill="black"/>
</g>
<defs>
<clipPath id="clip0_1_41">
<rect width="1056" height="1023" fill="white"/>
</clipPath>
</defs>
</svg>
