<svg width="701" height="363" viewBox="0 0 701 363" fill="none" xmlns="http://www.w3.org/2000/svg">
<g clip-path="url(#clip0_1_108)">
<path d="M91.6193 294.409C75.8523 294.409 62.2514 290.929 50.8168 283.969C39.4531 276.938 30.6818 267.136 24.5028 254.565C18.3949 241.923 15.3409 227.222 15.3409 210.46C15.3409 193.699 18.3949 178.926 24.5028 166.142C30.6818 153.287 39.2756 143.273 50.2841 136.099C61.3636 128.855 74.2898 125.233 89.0625 125.233C97.5852 125.233 106.001 126.653 114.311 129.494C122.621 132.335 130.185 136.952 137.003 143.344C143.821 149.665 149.254 158.045 153.303 168.486C157.351 178.926 159.375 191.781 159.375 207.051V217.705H33.2386V195.972H133.807C133.807 186.739 131.96 178.5 128.267 171.256C124.645 164.011 119.46 158.294 112.713 154.104C106.037 149.913 98.1534 147.818 89.0625 147.818C79.0483 147.818 70.3835 150.304 63.0682 155.276C55.8239 160.176 50.2486 166.568 46.3423 174.452C42.4361 182.335 40.483 190.787 40.483 199.807V214.295C40.483 226.653 42.6136 237.129 46.875 245.723C51.2074 254.246 57.2088 260.744 64.8793 265.219C72.5497 269.622 81.4631 271.824 91.6193 271.824C98.2244 271.824 104.19 270.901 109.517 269.054C114.915 267.136 119.567 264.295 123.473 260.531C127.379 256.696 130.398 251.937 132.528 246.256L156.818 253.074C154.261 261.312 149.964 268.557 143.928 274.807C137.891 280.986 130.433 285.815 121.555 289.295C112.678 292.705 102.699 294.409 91.6193 294.409Z" fill="black"/>
<path d="M264.489 294.409C249.148 294.409 235.938 290.787 224.858 283.543C213.778 276.298 205.256 266.32 199.29 253.607C193.324 240.893 190.341 226.369 190.341 210.034C190.341 193.415 193.395 178.749 199.503 166.036C205.682 153.251 214.276 143.273 225.284 136.099C236.364 128.855 249.29 125.233 264.062 125.233C275.568 125.233 285.938 127.364 295.17 131.625C304.403 135.886 311.967 141.852 317.862 149.523C323.757 157.193 327.415 166.142 328.835 176.369H303.693C301.776 168.912 297.514 162.307 290.909 156.554C284.375 150.73 275.568 147.818 264.489 147.818C254.688 147.818 246.094 150.375 238.707 155.489C231.392 160.531 225.675 167.669 221.555 176.902C217.507 186.064 215.483 196.824 215.483 209.182C215.483 221.824 217.472 232.832 221.449 242.207C225.497 251.582 231.179 258.862 238.494 264.047C245.881 269.232 254.545 271.824 264.489 271.824C271.023 271.824 276.953 270.688 282.28 268.415C287.607 266.142 292.116 262.875 295.81 258.614C299.503 254.352 302.131 249.239 303.693 243.273H328.835C327.415 252.932 323.899 261.632 318.288 269.374C312.749 277.044 305.398 283.152 296.236 287.697C287.145 292.172 276.563 294.409 264.489 294.409Z" fill="black"/>
<path d="M391.153 192.562V291H366.011V72.8182H391.153V152.932H393.284C397.119 144.48 402.872 137.768 410.543 132.797C418.284 127.754 428.582 125.233 441.438 125.233C452.588 125.233 462.354 127.47 470.734 131.945C479.115 136.348 485.614 143.131 490.23 152.293C494.918 161.384 497.261 172.96 497.261 187.023V291H472.119V188.727C472.119 175.73 468.746 165.68 461.999 158.578C455.322 151.405 446.054 147.818 434.193 147.818C425.955 147.818 418.568 149.558 412.034 153.038C405.571 156.518 400.457 161.597 396.693 168.273C393 174.949 391.153 183.045 391.153 192.562Z" fill="black"/>
<path d="M610.489 294.409C595.716 294.409 582.754 290.893 571.604 283.862C560.524 276.831 551.859 266.994 545.609 254.352C539.43 241.71 536.341 226.937 536.341 210.034C536.341 192.989 539.43 178.109 545.609 165.396C551.859 152.683 560.524 142.811 571.604 135.78C582.754 128.749 595.716 125.233 610.489 125.233C625.261 125.233 638.188 128.749 649.267 135.78C660.418 142.811 669.082 152.683 675.261 165.396C681.511 178.109 684.636 192.989 684.636 210.034C684.636 226.937 681.511 241.71 675.261 254.352C669.082 266.994 660.418 276.831 649.267 283.862C638.188 290.893 625.261 294.409 610.489 294.409ZM610.489 271.824C621.71 271.824 630.943 268.947 638.188 263.195C645.432 257.442 650.794 249.878 654.274 240.503C657.754 231.128 659.494 220.972 659.494 210.034C659.494 199.097 657.754 188.905 654.274 179.459C650.794 170.013 645.432 162.378 638.188 156.554C630.943 150.73 621.71 147.818 610.489 147.818C599.267 147.818 590.034 150.73 582.79 156.554C575.545 162.378 570.183 170.013 566.703 179.459C563.223 188.905 561.483 199.097 561.483 210.034C561.483 220.972 563.223 231.128 566.703 240.503C570.183 249.878 575.545 257.442 582.79 263.195C590.034 268.947 599.267 271.824 610.489 271.824Z" fill="black"/>
</g>
<defs>
<clipPath id="clip0_1_108">
<rect width="701" height="363" fill="white"/>
</clipPath>
</defs>
</svg>
